<?xml version="1.0" encoding="UTF-8" standalone="no"?>
<!-- Created with Inkscape (http://www.inkscape.org/) -->

<svg
   width="115.67408mm"
   height="128.29134mm"
   viewBox="0 0 115.67408 128.29134"
   version="1.1"
   id="svg1"
   xml:space="preserve"
   xmlns:inkscape="http://www.inkscape.org/namespaces/inkscape"
   xmlns:sodipodi="http://sodipodi.sourceforge.net/DTD/sodipodi-0.dtd"
   xmlns:xlink="http://www.w3.org/1999/xlink"
   xmlns="http://www.w3.org/2000/svg"
   xmlns:svg="http://www.w3.org/2000/svg"><sodipodi:namedview
     id="namedview1"
     pagecolor="#ffffff"
     bordercolor="#000000"
     borderopacity="0.25"
     inkscape:showpageshadow="2"
     inkscape:pageopacity="0.0"
     inkscape:pagecheckerboard="0"
     inkscape:deskcolor="#d1d1d1"
     inkscape:document-units="mm"><inkscape:page
       x="-5.5595067e-15"
       y="0"
       width="115.67409"
       height="128.29134"
       id="page2"
       margin="0"
       bleed="0" /></sodipodi:namedview><defs
     id="defs1"><linearGradient
       id="linearGradient3"
       inkscape:collect="always"><stop
         style="stop-color:#006ceb;stop-opacity:1;"
         offset="0"
         id="stop3" /><stop
         style="stop-color:#00e4a7;stop-opacity:1;"
         offset="1"
         id="stop4" /></linearGradient><radialGradient
       inkscape:collect="always"
       xlink:href="#linearGradient3"
       id="radialGradient4"
       cx="97.342949"
       cy="146.3405"
       fx="97.342949"
       fy="146.3405"
       r="57.426373"
       gradientTransform="matrix(1.6281256,1.7946447,-0.82220785,0.7459179,24.354112,-124.50147)"
       gradientUnits="userSpaceOnUse" /></defs><g
     inkscape:label="Слой 1"
     inkscape:groupmode="layer"
     id="layer1"
     transform="translate(-4.6812995,-95.206885)"><path
       style="fill:url(#radialGradient4)"
       d="m 61.886393,221.76325 c -1.84294,-0.84439 -7.63704,-3.55669 -12.87579,-6.02733 -5.23875,-2.47064 -11.747499,-5.53004 -14.463889,-6.79868 -15.27837,-7.13548 -16.05139,-7.57244 -16.05139,-9.07338 0,-1.17083 0.99187,-2.31006 2.01125,-2.31006 1.09783,0 4.65524,1.62032 34.980189,15.93266 4.92008,2.32212 9.17584,4.13367 9.45724,4.02569 0.362079,-0.13894 0.479889,-0.63557 0.403009,-1.69887 l -0.10864,-1.50253 -4.056939,-2.00115 c -2.23132,-1.10064 -7.78757,-3.75542 -12.34722,-5.89953 -23.217749,-10.91777 -28.991529,-13.69294 -29.635489,-14.24431 -1.5231,-1.30412 -0.4773,-3.78418 1.59572,-3.78418 0.91436,0 12.0278,5.0803 34.742549,15.88188 10.361219,4.92709 9.58952,4.7296 9.45628,2.42009 l -0.10767,-1.86626 -7.77881,-3.71994 c -4.27834,-2.04597 -11.64791,-5.54556 -16.376829,-7.77688 -20.55497,-9.69878 -21.33455,-10.0928 -21.88186,-11.05965 -0.97218,-1.7174 -0.11582,-2.49965 6.12954,-5.59908 3.0802,-1.52864 6.05676,-2.87062 6.61458,-2.98218 l 1.01421,-0.20284 -0.005,2.07257 c -0.003,1.13991 -0.12203,2.25078 -0.26458,2.46859 -0.14255,0.21781 -1.41012,0.97387 -2.81682,1.68013 -1.40671,0.70626 -2.55764,1.41371 -2.55764,1.57212 0,0.15841 4.16718,2.24304 9.26041,4.6325 5.09323,2.38946 13.741159,6.48412 19.217609,9.09924 l 9.957189,4.75476 7.15253,-3.4406 c 7.83528,-3.76903 9.48562,-4.21744 11.68343,-3.17451 1.99772,0.94798 2.88012,2.68812 2.8639,5.64777 -0.0107,1.94626 -0.19773,2.80397 -0.88194,4.04371 -1.09297,1.98039 -2.36878,2.81734 -9.15869,6.00823 -3.00743,1.41333 -5.66649,2.72566 -5.90903,2.91627 -0.30702,0.24131 -0.44261,1.59258 -0.44637,4.44853 -0.003,2.25606 -0.12204,4.27956 -0.26459,4.49665 -0.27074,0.41231 -3.27259,2.00092 -4.49311,2.37779 -0.44972,0.13887 -1.922939,-0.33946 -4.056939,-1.31722 z m 15.211219,-18.24762 c 2.30958,-1.17749 4.36618,-2.45283 4.57022,-2.83409 0.58702,-1.09685 0.26948,-2.58164 -0.57803,-2.70283 -0.40102,-0.0574 -2.90134,0.92543 -5.55625,2.18395 l -4.82712,2.28822 v 1.726 c 0,0.9493 0.0957,1.82169 0.21266,1.93866 0.3,0.3 1.39106,-0.15911 6.17852,-2.59991 z m -2.62822,14.96965 c -0.12935,-0.12935 -0.23518,-1.05724 -0.23518,-2.06199 0,-1.2959 0.17941,-1.98603 0.61736,-2.3747 1.13301,-1.00554 34.299798,-16.49479 35.319918,-16.49479 1.79108,0 2.8226,2.16982 1.72175,3.62176 -0.46611,0.61476 -3.59943,2.22076 -10.84792,5.56016 -7.580698,3.49245 -14.793028,6.86962 -20.235038,9.47507 -5.18566,2.48272 -5.88265,2.73273 -6.34089,2.27449 z m 15.79652,-18.37384 c 0.35698,-3.04263 0.38474,-3.08289 2.93854,-4.26292 1.30505,-0.60303 5.38906,-2.52755 9.075588,-4.27672 4.02469,-1.90962 7.15081,-3.18229 7.82411,-3.18527 1.39213,-0.006 2.23006,0.79003 2.23006,2.11896 0,1.33466 -1.29189,2.29778 -5.82083,4.33952 -1.94028,0.87471 -6.19868,2.87391 -9.463108,4.44265 -3.26444,1.56874 -6.17992,2.85225 -6.47885,2.85225 -0.45407,0 -0.50434,-0.33379 -0.30551,-2.02847 z m -29.299089,-6.41446 c -2.34936,-1.12534 -4.40468,-2.26146 -4.56738,-2.52472 -0.16271,-0.26326 -0.26803,-2.67887 -0.23404,-5.36803 l 0.0618,-4.88936 -1.66802,-3.93956 -1.66801,-3.93957 -0.24615,4.19546 c -0.13538,2.30749 -0.33071,4.41583 -0.43408,4.68519 -0.10336,0.26936 -1.85226,1.29893 -3.88643,2.28794 l -3.69851,1.79819 -3.275749,-1.52641 c -1.80166,-0.83953 -3.555,-1.7589 -3.89631,-2.04305 -0.5795,-0.48244 -0.61452,-1.6966 -0.52917,-18.34703 l 0.0914,-17.8304 3.61895,-2.09076 3.618939,-2.09077 1.63184,0.62321 c 3.39217,1.29548 3.32721,1.1752 12.14309,22.48346 2.75071,6.64857 5.43303,13.12018 5.96071,14.38136 0.52768,1.26118 1.1638,2.29306 1.413609,2.29306 0.25845,0 1.74242,-3.11692 3.44316,-7.23195 8.47524,-20.50633 11.99667,-28.50554 13.10089,-29.75966 0.71781,-0.81524 3.68306,-2.34311 4.54746,-2.34311 0.35332,0 2.14348,0.8593 3.97815,1.90957 2.30536,1.31971 3.40734,2.16424 3.56751,2.73402 0.12746,0.45346 0.24758,8.37443 0.26692,17.60217 0.0271,12.92263 -0.0662,16.9109 -0.40581,17.35736 -0.24253,0.3188 -2.06703,1.3106 -4.05443,2.20401 l -3.61346,1.62437 -3.79488,-1.872 c -4.39181,-2.16647 -4.23717,-1.90246 -4.28887,-7.32242 -0.022,-2.30841 -0.15939,-3.56124 -0.36746,-3.35139 -0.18277,0.18433 -0.92968,1.84327 -1.6598,3.68653 -1.28198,3.23646 -1.3341,3.5389 -1.51979,8.81944 l -0.19228,5.46806 -4.39775,2.20486 c -2.41877,1.21267 -4.48252,2.19432 -4.58612,2.18143 -0.10359,-0.0129 -2.110559,-0.94417 -4.459909,-2.0695 z m 26.873639,-1.76274 c -0.74449,-0.76242 -1.27083,-1.59586 -1.16964,-1.85208 0.10119,-0.25622 3.86625,-2.21169 8.3668,-4.34549 4.50056,-2.13379 8.339048,-4.06786 8.529978,-4.29792 0.38452,-0.46332 -0.0242,-0.77345 -3.22784,-2.4492 l -1.940268,-1.01492 -0.10734,-2.07989 c -0.059,-1.14393 0.0525,-2.23972 0.24787,-2.43509 0.44308,-0.44308 12.997308,5.62544 13.471818,6.51208 0.51093,0.95469 0.37648,2.25507 -0.29499,2.85315 -0.55539,0.49468 -2.87881,1.62475 -17.514358,8.51864 -2.30835,1.08732 -4.37957,1.97695 -4.60271,1.97695 -0.22314,0 -1.01484,-0.6238 -1.75932,-1.38623 z M 64.956953,169.79117 c -0.2777,-0.46344 -4.75066,-11.54377 -6.80621,-16.8602 l -1.9082,-4.93533 -0.005,-14.29106 c -0.003,-8.37296 -0.1437,-14.51019 -0.33938,-14.82023 -0.25368,-0.40195 -1.22769,-0.55809 -4.05154,-0.64947 -2.78399,-0.0901 -3.71757,-0.23729 -3.71757,-0.58615 0,-0.25622 2.98181,-4.32958 6.62623,-9.05191 9.99105,-12.946115 10.03143,-12.995805 10.562879,-12.995805 0.59897,0 0.84928,0.29384 7.23938,8.498005 8.06818,10.35863 10.22085,13.31682 9.97735,13.71082 -0.13151,0.21278 -1.60053,0.37124 -3.47041,0.37436 -1.7833,0.003 -3.4805,0.15594 -3.77154,0.33993 -0.45451,0.28734 -0.53943,2.39616 -0.60191,14.94699 l -0.0727,14.61245 -2.01029,5.06776 c -6.4969,16.37809 -7.06592,17.61568 -7.650639,16.63984 z m -41.169969,-4.34015 c -0.53817,-0.7558 -1.04355,-1.05833 -1.7679,-1.05833 -0.63785,0 -1.2114,-0.28139 -1.54534,-0.75815 -0.47362,-0.67619 -0.47212,-0.87208 0.0139,-1.81193 0.45379,-0.87755 0.46943,-1.19484 0.0935,-1.89726 -0.31756,-0.59336 -0.35186,-1.12831 -0.11567,-1.80404 0.27374,-0.78317 0.58214,-0.98098 1.66998,-1.07111 1.01241,-0.0839 1.42871,-0.31789 1.7259,-0.97014 0.56548,-1.24111 1.99153,-1.14041 3.18987,0.22524 0.6734,0.76741 1.15,1.02196 1.62889,0.86997 0.73744,-0.23406 1.80964,0.5985 1.80964,1.40518 0,0.26806 -0.18097,0.88456 -0.40216,1.37002 -0.3052,0.66985 -0.29808,1.13392 0.0295,1.92487 0.59506,1.43661 0.003,2.51735 -1.37966,2.51735 -0.73279,0 -1.2351,0.29941 -1.7755,1.05833 -0.47345,0.66491 -1.0636,1.05834 -1.5875,1.05834 -0.5239,0 -1.11405,-0.39343 -1.5875,-1.05834 z m 2.63979,-3.39574 c 0.86599,-0.86599 0.5476,-2.34611 -0.59024,-2.74387 -1.21825,-0.42587 -2.04955,0.21464 -2.04955,1.57917 0,1.54534 1.56754,2.23695 2.63979,1.1647 z m 78.151856,3.57879 c -0.35193,-0.42404 -0.11029,-1.43781 1.2823,-5.37986 1.4611,-4.13597 1.83345,-4.8741 2.50711,-4.97009 1.14591,-0.16327 1.03961,0.73275 -0.67891,5.72229 -1.83188,5.31866 -2.14742,5.78811 -3.1105,4.62766 z m -3.81264,-3.10682 c -0.816508,-0.83196 -1.484558,-1.73876 -1.484558,-2.01512 0,-0.60695 2.799838,-3.52778 3.381648,-3.52778 0.22688,0 0.61491,0.24387 0.86227,0.54193 0.37562,0.45259 0.29551,0.70291 -0.48597,1.51861 -0.51465,0.53717 -0.93573,1.09765 -0.93573,1.2455 0,0.14785 0.41449,0.81223 0.92107,1.4764 0.50659,0.66417 0.82907,1.44733 0.71663,1.74035 -0.35883,0.9351 -1.44796,0.57642 -2.97536,-0.97989 z m 8.94916,0.92605 c -0.14235,-0.37095 0.10316,-0.92923 0.66781,-1.51861 1.1288,-1.17821 1.12145,-1.67458 -0.0428,-2.8898 -0.78148,-0.8157 -0.86159,-1.06602 -0.48597,-1.51861 0.24736,-0.29806 0.62275,-0.54193 0.83418,-0.54193 0.58696,0 3.40974,2.89724 3.40974,3.49969 0,0.73021 -2.83171,3.55587 -3.56349,3.55587 -0.3269,0 -0.69565,-0.26397 -0.81946,-0.58661 z M 29.969114,152.36356 c -1.74156,-0.97296 -3.28694,-1.95849 -3.43418,-2.19008 -0.14723,-0.23159 -0.27013,-2.28539 -0.2731,-4.564 l -0.005,-4.14292 1.42893,-1.03512 c 0.78592,-0.56931 2.59673,-1.63626 4.02402,-2.37101 l 2.59509,-1.33589 3.47251,1.75143 c 2.00139,1.00945 3.47251,1.9689 3.47251,2.26476 0,0.28232 -1.33434,1.3304 -2.96519,2.32906 -1.63085,0.99866 -3.17866,2.10769 -3.43958,2.46452 -0.33114,0.45286 -0.4744,1.85358 -0.4744,4.6383 0,4.79248 0.13509,4.72523 -4.4012,2.19095 z m 66.307438,1.3576 c -0.0883,-0.24253 -0.20237,-2.2494 -0.25352,-4.4597 l -0.093,-4.01872 -3.175,-1.99838 c -1.74625,-1.0991 -3.175,-2.22755 -3.175,-2.50766 0,-0.29211 1.46608,-1.23811 3.43799,-2.2184 l 3.43799,-1.70911 3.04229,1.70766 c 4.827658,2.7098 4.722008,2.54699 4.722008,7.27667 0,4.68312 0.0978,4.52526 -4.276758,6.90541 -2.87601,1.56481 -3.41483,1.71501 -3.66701,1.02223 z M 12.409904,150.6061 c -0.33955,-0.19777 -0.61736,-0.58423 -0.61736,-0.85881 0,-0.76178 -1.17244,-1.22397 -2.5413304,-1.00183 -1.04213,0.16911 -1.34408,0.0537 -1.98211,-0.75739 -0.56738,-0.7213 -0.66775,-1.11562 -0.40768,-1.60156 0.58587,-1.09472 0.38805,-1.7577 -0.7111,-2.38315 -0.87309,-0.49681 -1.05648,-0.82686 -1.05833,-1.90462 -0.002,-1.07415 0.16857,-1.38641 0.96791,-1.77365 0.85217,-0.41283 0.97014,-0.66976 0.97014,-2.11282 0,-2.06504 0.50593,-2.57097 2.57097,-2.57097 1.4430604,0 1.6999904,-0.11797 2.1128204,-0.97014 0.38724,-0.79934 0.6995,-0.96975 1.77365,-0.96791 1.08597,0.002 1.40697,0.18373 1.9223,1.08913 0.57789,1.01533 0.7129,1.07097 2.05051,0.84498 2.06816,-0.34941 2.90493,0.4672 2.59519,2.53269 -0.2139,1.42643 -0.16259,1.55293 0.8679,2.13949 0.91658,0.52172 1.09562,0.83776 1.09748,1.93728 0.002,1.11366 -0.1645,1.40008 -1.09201,1.87972 -1.03102,0.53316 -1.0813,0.6522 -0.87013,2.06036 0.28757,1.91767 -0.58838,2.89621 -2.28826,2.55623 -1.23721,-0.24744 -2.45014,0.2522 -2.45014,1.00928 0,0.53587 -1.05492,1.24188 -1.82889,1.22399 -0.25529,-0.006 -0.74198,-0.17253 -1.08153,-0.3703 z m 3.01215,-5.97327 c 2.39478,-1.88374 0.88394,-5.64014 -2.2685,-5.64014 -1.12941,0 -2.77212,1.88145 -2.77212,3.175 0,1.47585 1.65916,3.175 3.10029,3.175 0.57084,0 1.44399,-0.31944 1.94033,-0.70986 z m 95.853826,5.19446 c -1.0802,-0.54366 -1.42272,-2.68469 -0.54592,-3.41237 0.85714,-0.71136 2.36842,-0.54767 3.08224,0.33386 0.85455,1.05533 0.8052,1.63445 -0.22723,2.66689 -0.99286,0.99286 -1.11204,1.0141 -2.30909,0.41162 z m -2.28922,-10.25901 c -0.54522,-0.39867 -0.44127,-0.89554 1.26806,-6.06118 1.02408,-3.0948 2.00972,-5.82535 2.19031,-6.06789 0.46596,-0.62578 1.53709,-0.54648 1.79787,0.1331 0.27961,0.72864 -3.59764,12.02169 -4.2078,12.25583 -0.24999,0.0959 -0.72179,-0.021 -1.04844,-0.25986 z m -29.108008,-1.63393 c -0.38805,-0.38805 -0.70555,-0.98773 -0.70555,-1.33261 0,-1.0378 1.03352,-2.19516 1.96028,-2.19516 1.04216,0 2.27305,1.14621 2.27305,2.11666 0,0.38806 -0.3175,1.02306 -0.70556,1.41111 -0.38805,0.38806 -1.02305,0.70556 -1.41111,0.70556 -0.38805,0 -1.02305,-0.3175 -1.41111,-0.70556 z m 35.538588,-0.39723 c -0.85026,-0.47583 -0.77529,-0.88456 0.44475,-2.42499 0.58208,-0.73494 1.05833,-1.50632 1.05833,-1.71418 0,-0.20787 -0.49307,-0.93951 -1.09571,-1.62588 -1.12521,-1.28154 -1.16336,-2.13651 -0.11332,-2.53944 0.39061,-0.1499 1.18783,0.39792 2.52494,1.73502 2.35397,2.35398 2.31986,2.82784 -0.37894,5.26408 -1.45356,1.31216 -1.95173,1.57867 -2.44005,1.30539 z m -11.14575,-1.8747 c -0.99828,-1.05554 -1.81506,-2.04313 -1.81506,-2.19464 0,-0.459 4.00264,-4.35287 4.47446,-4.35287 0.24179,0 0.59297,0.28656 0.78042,0.63681 0.26605,0.49712 0.0757,0.97182 -0.86776,2.16407 l -1.20857,1.52726 1.23295,1.36472 c 1.35491,1.49972 1.43316,1.72692 0.80961,2.35047 -0.78357,0.78358 -1.58185,0.433 -3.40605,-1.49582 z M 41.614904,132.4873 c 0.24262,-1.94188 0.21072,-2.05563 -0.89734,-3.19885 -1.44712,-1.49305 -1.21888,-2.13271 0.87292,-2.44639 1.494399,-0.2241 1.695799,-0.37638 2.391409,-1.80815 0.42869,-0.88237 1.00569,-1.56345 1.32454,-1.56345 0.31885,0 0.89585,0.68108 1.32454,1.56345 0.69561,1.43177 0.89701,1.58405 2.39141,1.80815 2.0918,0.31368 2.32004,0.95334 0.87292,2.44639 -1.10806,1.14322 -1.13996,1.25697 -0.89734,3.19885 0.24747,1.9807 0.23813,2.01043 -0.57345,1.82574 -0.45377,-0.10326 -1.34096,-0.39739 -1.97155,-0.65361 -0.9499,-0.38598 -1.34316,-0.38598 -2.29306,0 -0.63059,0.25622 -1.51778,0.55035 -1.971549,0.65361 -0.81158,0.18469 -0.82092,0.15496 -0.57345,-1.82574 z m 45.351748,-1.66555 c -1.59683,-1.09559 -2.47771,-2.33836 -2.716,-3.83178 -0.33249,-2.08375 0.29046,-2.93893 4.11737,-5.65226 1.97501,-1.40032 5.5163,-4.44478 7.86953,-6.76546 4.271558,-4.21247 4.281018,-4.21915 5.745688,-4.05757 2.77897,0.30659 4.70653,2.55223 4.70653,5.4832 0,1.3708 -0.0913,1.4806 -2.82223,3.39421 -1.55222,1.08767 -2.82222,2.10291 -2.82222,2.25608 0,0.15317 0.47625,0.6306 1.05833,1.06096 0.58209,0.43035 1.05834,1.00449 1.05834,1.27586 0,0.7761 -0.9796,1.55668 -1.7129,1.36491 -0.53316,-0.13942 -0.71321,0.072 -0.8974,1.05382 -0.17333,0.9239 -0.45067,1.28351 -1.119338,1.45134 -1.14841,0.28823 -1.45669,0.0731 -1.73931,-1.21364 -0.12736,-0.57986 -0.41738,-1.0599 -0.6445,-1.06676 -0.22712,-0.007 -1.61095,1.279 -3.07518,2.85746 -2.42493,2.61413 -2.80227,2.8853 -4.23333,3.04224 -1.25264,0.13737 -1.8148,0.005 -2.77338,-0.65261 z m 5.85173,-4.02944 c 1.32336,-1.47146 2.54276,-2.91754 2.70977,-3.21351 0.40923,-0.72521 -0.23088,-2.04547 -1.34593,-2.77608 -1.00317,-0.6573 -1.28926,-0.54064 -3.65212,1.48918 l -1.1666,1.00218 0.90202,1.21506 c 0.49611,0.66829 0.90202,1.5721 0.90202,2.00847 0,1.03924 -1.25581,1.88893 -2.81252,1.90296 -1.17066,0.0106 -1.20383,0.0419 -0.55964,0.52917 1.46963,1.11157 2.46909,0.68229 5.023,-2.15743 z m -4.85686,-0.8524 c 0.24343,0 0.37645,-0.19844 0.29561,-0.44097 -0.0809,-0.24254 -0.53064,-0.44098 -0.99954,-0.44098 -0.68447,0 -0.87614,0.20766 -0.9722,1.05329 -0.11561,1.01775 -0.0968,1.03262 0.55695,0.44097 0.37212,-0.33677 0.87576,-0.61231 1.11918,-0.61231 z m 14.752888,-8.03907 c 1.01501,-0.68273 1.936,-1.52656 2.04665,-1.87517 0.41447,-1.30588 -1.60565,-3.84409 -3.05946,-3.84409 -0.60761,0 -4.172478,3.76436 -4.176008,4.40972 -0.003,0.63553 2.502858,3.01385 2.928808,2.77921 0.22799,-0.12559 1.245,-0.78695 2.26001,-1.46967 z m -81.396866,13.08591 c -1.24116,-0.44358 -1.41111,-1.23227 -1.41111,-6.54857 0,-2.94256 0.1604,-5.54715 0.36519,-5.9298 0.3058,-0.57139 0.75328,-0.68236 2.75167,-0.68236 1.38577,0 2.56398,0.17751 2.80981,0.42333 0.29559,0.29559 0.42333,2.20799 0.42333,6.33759 0,5.4862 -0.0494,5.94069 -0.68236,6.27945 -0.70638,0.37804 -3.3281,0.45218 -4.25653,0.12036 z m 6.61458,-0.11584 c -0.85329,-0.52516 -0.90305,-5.65325 -0.063,-6.4933 0.67728,-0.67728 4.72728,-0.77606 5.37231,-0.13103 0.66836,0.66836 0.55961,5.72717 -0.13552,6.30407 -0.71452,0.593 -4.36361,0.81888 -5.17379,0.32026 z m -0.0985,-8.69586 c -0.47243,-0.47243 -0.56369,-1.10802 -0.45842,-3.19266 0.15046,-2.97958 0.47746,-3.38512 2.53187,-3.14004 2.92831,0.34932 5.30996,4.61433 3.5561,6.36819 -0.79548,0.79548 -4.82397,0.77008 -5.62955,-0.0355 z m 9.71169,-8.92775 c 0,-0.93567 -0.26955,-1.86451 -0.72786,-2.50816 -0.81025,-1.13788 -0.65838,-1.73256 0.44244,-1.73256 0.4022,0 1.2553,-0.55562 1.89577,-1.23472 0.64047,-0.6791 1.32982,-1.23472 1.5319,-1.23472 0.20207,0 0.61,0.46913 0.90651,1.04251 0.38675,0.74789 0.888899,1.10813 1.776849,1.27471 1.65069,0.30968 1.75469,0.59927 0.67571,1.88157 -0.6973,0.82869 -0.88595,1.39579 -0.8021,2.41111 0.10587,1.28194 0.0735,1.32402 -0.94271,1.22387 -1.807769,-0.17818 -2.782539,-0.14967 -3.786369,0.11071 -0.94462,0.24503 -0.97014,0.21256 -0.97014,-1.23432 z m 48.212958,-1.3009 c -0.12935,-0.12935 -0.23518,-0.72903 -0.23518,-1.33262 0,-0.60359 -0.24732,-1.45053 -0.54961,-1.8821 -0.60155,-0.85884 -0.42005,-1.48899 0.42889,-1.48899 0.29876,0 1.01474,-0.50478 1.59106,-1.12174 l 1.04787,-1.12174 0.76936,0.9342 c 0.42316,0.51381 1.20593,1.09404 1.73951,1.2894 1.07359,0.39307 1.25116,1.11137 0.44097,1.78377 -0.29104,0.24154 -0.52916,0.96213 -0.52916,1.6013 0,1.28542 -0.47798,1.62172 -1.6757,1.17901 -0.452,-0.16708 -1.18335,-0.14527 -1.69866,0.0507 -1.07554,0.40892 -1.03279,0.40542 -1.32935,0.10886 z"
       id="path2" /><path
       style="fill:#00579c;fill-opacity:1"
       d="m 61.083045,221.90357 c -2.228196,-1.0373 -8.337516,-3.90652 -13.576266,-6.37605 -5.23875,-2.46953 -11.747501,-5.53059 -14.46389,-6.80235 -15.035865,-7.0395 -14.993055,-7.01424 -14.993055,-8.8489 0,-1.10389 1.350921,-2.54022 2.389176,-2.54022 0.509771,0 5.459187,2.12919 10.998702,4.73153 5.539514,2.60233 14.141211,6.63917 19.114882,8.97075 4.97367,2.33158 10.168771,4.80615 11.544661,5.49904 1.3759,0.69289 2.58497,1.2598 2.68683,1.2598 0.10186,0 0.18123,-0.75407 0.17639,-1.6757 l -0.009,-1.67569 -3.60716,-1.64858 c -1.983945,-0.90671 -10.354045,-4.85075 -18.600226,-8.76452 -8.246181,-3.91377 -16.898057,-7.98547 -19.22639,-9.04821 -2.328334,-1.06275 -4.511146,-2.25599 -4.850695,-2.65165 -1.35893,-1.58349 -0.130277,-4.16899 1.981146,-4.16899 0.805826,0 13.18159,5.68598 39.823025,18.29648 l 4.49792,2.12905 v -1.52651 c 0,-0.83959 -0.19844,-1.6747 -0.44098,-1.85581 -0.49804,-0.37192 -12.952462,-6.31508 -32.014582,-15.27715 -7.503112,-3.52759 -13.207619,-6.41872 -13.67014,-6.92823 -0.945259,-1.04129 -0.998799,-1.79642 -0.207495,-2.92617 0.731017,-1.04367 13.485157,-7.26192 13.947171,-6.7999 0.174848,0.17485 0.270418,1.41342 0.212379,2.75238 l -0.105526,2.43447 -2.940602,1.43216 -2.940602,1.43216 4.175324,1.97414 c 2.296428,1.08578 8.779074,4.14237 14.40588,6.79241 5.626806,2.65005 12.41173,5.86632 15.077613,7.14727 l 4.84705,2.32901 7.14739,-3.47169 c 6.53556,-3.17451 7.32859,-3.4739 9.26406,-3.49747 3.80257,-0.0463 5.62318,2.02695 5.57469,6.3483 -0.0303,2.69666 -0.7588,4.627 -2.27716,6.03364 -0.8011,0.74214 -6.24212,3.5635 -11.49961,5.96294 l -2.55764,1.16727 -0.0483,1.87215 c -0.0266,1.02969 -0.0663,3.06278 -0.0882,4.51799 l -0.0399,2.64583 -2.11667,1.10629 c -3.27106,1.70964 -3.1515,1.71517 -7.5904,-0.35127 z m 6.6852,-0.0956 2.13992,-0.92806 v -4.54848 -4.54848 l 7.19992,-3.47846 c 6.58763,-3.18265 7.28514,-3.60725 8.20208,-4.99284 0.89787,-1.35676 1.00217,-1.81756 1.00217,-4.42739 0,-2.74694 -0.0595,-2.97513 -1.04368,-4.00239 -0.57403,-0.59915 -1.64037,-1.26814 -2.36964,-1.48664 -1.64977,-0.49428 -2.34803,-0.24502 -11.12965,3.97301 l -6.42909,3.08805 -7.505635,-3.55505 c -4.128101,-1.95528 -12.982514,-6.13958 -19.676472,-9.29846 -6.693959,-3.15888 -12.21731,-5.9666 -12.274114,-6.23938 -0.06658,-0.31971 0.936333,-0.97003 2.822223,-1.83001 1.609026,-0.73373 3.042133,-1.51299 3.184683,-1.73168 0.142549,-0.2187 0.259181,-0.95326 0.259181,-1.63235 0,-0.6791 -0.116632,-1.41453 -0.259181,-1.6343 -0.176034,-0.27139 -2.212107,0.54105 -6.34665,2.53245 -6.394447,3.07989 -7.228722,3.77415 -6.295551,5.23903 0.23444,0.36802 3.354651,2.04648 6.933803,3.72991 12.850836,6.04433 23.22567,10.95144 31.201995,14.758 l 8.113888,3.8722 0.10431,2.33191 c 0.0834,1.86423 2.7e-4,2.33191 -0.4145,2.33191 -0.28534,0 -10.317251,-4.61173 -22.293124,-10.24828 -11.975874,-5.63655 -22.102794,-10.20061 -22.504268,-10.14236 -0.401473,0.0582 -0.972324,0.53913 -1.268557,1.06861 -0.499398,0.89261 -0.486503,1.01479 0.177138,1.67843 0.39366,0.39366 2.853227,1.72164 5.465706,2.95107 2.612479,1.22943 10.147462,4.78518 16.744407,7.90166 6.596944,3.11648 14.693195,6.94099 17.991667,8.49893 l 5.997221,2.8326 0.10639,2.19176 c 0.0585,1.20546 -0.0316,2.32974 -0.20025,2.49839 -0.17366,0.17366 -2.74401,-0.86173 -5.927221,-2.38762 -5.463084,-2.61875 -14.595584,-6.91388 -30.816946,-14.4936 -6.577269,-3.07334 -8.040348,-3.63692 -8.682294,-3.34443 -1.134527,0.51692 -1.30787,1.69062 -0.399713,2.70644 0.42351,0.47372 4.698066,2.69202 9.583923,4.97362 4.850694,2.26519 14.851945,6.95264 22.225001,10.41656 7.373056,3.46392 13.59353,6.29932 13.82328,6.3009 0.22974,0.002 1.38068,-0.41475 2.55763,-0.92518 z m 2.37511,-14.82935 c -0.12935,-0.12936 -0.23519,-1.13663 -0.23519,-2.23838 0,-1.47327 0.16332,-2.14163 0.61737,-2.52649 0.89321,-0.75712 9.6782,-4.87773 10.39913,-4.87773 0.95433,0 1.72518,1.46731 1.46205,2.78298 -0.3016,1.50801 -1.48021,2.34308 -6.9754,4.94223 -4.7573,2.25014 -4.88773,2.29761 -5.26796,1.91739 z m 6.07391,-3.2721 c 2.68872,-1.34693 4.98848,-2.70929 5.11058,-3.02747 0.34108,-0.88886 0.26367,-2.2173 -0.1439,-2.46919 -0.20125,-0.12437 -2.5825,0.84584 -5.29167,2.15604 l -4.92577,2.38218 v 1.70369 c 0,0.93704 0.0815,1.7037 0.18109,1.7037 0.0996,0 2.38095,-1.10203 5.06967,-2.44895 z m -2.23191,13.34471 c -0.18743,-1.90213 -0.13344,-2.63775 0.21812,-2.97188 0.94687,-0.89996 34.986045,-16.74333 35.972725,-16.74333 2.07612,0 3.29868,2.97427 1.78546,4.34372 -0.62033,0.56139 -5.04563,2.73369 -15.242375,7.48221 -2.81341,1.31017 -8.73209,4.09753 -13.15264,6.19414 -4.42055,2.09661 -8.3287,3.90448 -8.68478,4.0175 -0.57283,0.18181 -0.67612,-0.0857 -0.89651,-2.32236 z m 15.85476,-5.60099 c 5.04472,-2.3774 9.80722,-4.60223 10.583325,-4.94406 0.77611,-0.34183 3.59151,-1.67425 6.25644,-2.96095 3.96712,-1.91542 4.88585,-2.50089 5.0689,-3.2302 0.24305,-0.96841 -0.63281,-2.27345 -1.52581,-2.27345 -0.47489,0 -16.310575,7.35391 -29.290495,13.60217 l -6.08542,2.92939 v 1.94863 1.94862 l 2.91042,-1.3488 c 1.60073,-0.74183 7.03792,-3.29394 12.08264,-5.67135 z m 0.0272,-11.2038 c 0.12814,-1.50371 0.41257,-2.91593 0.63207,-3.13826 0.21949,-0.22234 4.46472,-2.32577 9.43382,-4.67431 9.437385,-4.46037 10.918795,-4.90501 12.077245,-3.62493 0.69038,0.76286 0.76501,2.5058 0.14288,3.33682 -0.40455,0.54037 -21.508095,10.83471 -22.211315,10.83471 -0.16923,0 -0.20285,-1.23031 -0.0747,-2.73403 z m 11.790875,-3.60254 c 4.9477,-2.36106 9.30549,-4.59654 9.68397,-4.96774 0.56368,-0.55284 0.6246,-0.85174 0.3368,-1.65266 -0.60069,-1.67169 -1.97129,-1.28591 -11.60827,3.26738 -4.850695,2.29185 -8.893755,4.22713 -8.984575,4.3006 -0.0908,0.0735 -0.25422,1.06543 -0.36311,2.20433 l -0.19798,2.07073 1.06866,-0.46491 c 0.58777,-0.25569 5.1168,-2.39667 10.064505,-4.75773 z m -41.186805,-2.67281 -4.674308,-2.24831 -0.0083,-5.39546 -0.0083,-5.39546 -1.574645,-3.88056 -1.574645,-3.88056 -0.0046,4.67625 -0.0046,4.67624 -3.96875,1.97095 -3.96875,1.97096 -4.145139,-1.95217 -4.145139,-1.95218 v -18.01676 -18.01677 l 1.852083,-1.17084 c 1.018646,-0.64397 2.820965,-1.6977 4.005153,-2.34163 l 2.15307,-1.1708 2.38746,1.19949 c 2.793391,1.40343 2.462085,0.81094 8.364017,14.95782 1.942713,4.65667 4.763567,11.40354 6.268563,14.99306 1.505,3.58951 2.95012,7.1217 3.21138,7.8493 0.26126,0.72761 0.56218,1.31943 0.66873,1.31517 0.10654,-0.004 1.53142,-3.29832 3.1664,-7.32014 4.50473,-11.08096 11.99622,-28.73275 12.56471,-29.60551 0.70362,-1.08022 4.96512,-3.41055 5.71246,-3.12377 0.32819,0.12593 2.14621,1.13375 4.04006,2.2396 l 3.44335,2.01062 0.009,18.03667 c 0.007,14.0171 -0.0892,18.11433 -0.43191,18.38515 -0.24253,0.19167 -2.04886,1.09911 -4.01406,2.01653 l -3.5731,1.66804 -4.09982,-1.96349 -4.09983,-1.96349 -0.017,-4.86054 -0.017,-4.86053 -1.56367,4.23333 -1.56367,4.23333 -0.007,5.22722 -0.007,5.22721 -4.71913,2.26932 c -2.59552,1.24812 -4.77833,2.2562 -4.85069,2.24017 -0.0724,-0.016 -2.235,-1.04088 -4.80587,-2.27746 z m 9.45702,-0.74488 4.21312,-1.99315 v -5.21234 -5.21234 l 1.76389,-4.67382 c 0.97014,-2.5706 1.76389,-4.72563 1.76389,-4.78896 0,-0.0633 0.23399,-0.11513 0.51997,-0.11513 0.43105,0 0.53664,0.91715 0.61737,5.36224 l 0.0974,5.36225 3.35139,1.6701 c 1.84326,0.91855 3.56766,1.68054 3.83199,1.69331 0.26434,0.0128 2.05028,-0.71512 3.96875,-1.61752 l 3.48815,-1.64072 v -17.55224 -17.55224 l -3.59482,-2.10413 -3.59482,-2.10413 -2.07365,1.10057 c -1.83328,0.97299 -2.20876,1.36637 -3.23916,3.39362 -1.09087,2.14619 -6.64589,15.25097 -12.63613,29.80972 -1.56506,3.80373 -2.80362,6.35 -3.08879,6.35 -0.2875,0 -1.71909,-3.00426 -3.61426,-7.58472 -8.179692,-19.76955 -9.82956,-23.72212 -11.370865,-27.24103 l -1.656237,-3.7813 -2.138954,-1.06885 -2.138955,-1.06885 -2.325988,1.29334 c -1.279294,0.71134 -2.893924,1.6483 -3.588067,2.08214 l -1.262078,0.78881 0.02736,17.58467 0.02736,17.58468 3.351389,1.65196 c 1.843264,0.90858 3.627102,1.66264 3.964085,1.6757 0.336983,0.013 2.12292,-0.72647 3.96875,-1.64339 l 3.356055,-1.66711 v -5.15326 c 0,-6.69557 0.372692,-6.79033 2.808901,-0.71413 l 1.779835,4.43912 -0.0013,5.2006 -0.0013,5.2006 4.145142,2.10125 c 2.27982,1.15568 4.35267,2.10947 4.60632,2.11953 0.25366,0.0101 2.35709,-0.87862 4.67431,-1.97485 z m 17.44446,-1.17965 c -1.07744,-1.09388 -1.60732,-1.88275 -1.39785,-2.08107 0.18554,-0.17567 4.27529,-2.19461 9.08833,-4.48655 l 8.750975,-4.16716 -3.01834,-1.51668 -3.018345,-1.51669 v -2.47671 c 0,-1.84024 0.1317,-2.52725 0.51248,-2.67337 0.5409,-0.20756 12.607045,5.49505 13.678335,6.46455 0.72526,0.65635 0.82795,2.5273 0.18488,3.36836 -0.4401,0.57559 -21.882155,10.84701 -22.643625,10.84701 -0.22091,0 -1.18249,-0.79276 -2.13684,-1.76169 z m 13.050595,-4.08006 c 5.62681,-2.65853 10.52921,-5.11602 10.89422,-5.4611 0.45997,-0.43484 0.59675,-0.894 0.44566,-1.49601 -0.17852,-0.71125 -1.34148,-1.42005 -6.41961,-3.91265 -3.41088,-1.67423 -6.349855,-3.04405 -6.531065,-3.04405 -0.41913,0 -0.42238,2.83479 -0.004,3.49568 0.17307,0.27338 1.551305,1.14651 3.062765,1.94027 1.51146,0.79377 2.80012,1.61379 2.86369,1.82227 0.0636,0.20848 -3.91571,2.33091 -8.842835,4.71652 l -8.95843,4.33747 1.27675,1.35822 c 0.70221,0.74701 1.4355,1.29495 1.62953,1.21764 0.19403,-0.0773 4.95653,-2.31573 10.583325,-4.97426 z M 64.818135,170.56572 c -0.1187,-0.19206 -2.197,-5.31108 -4.61844,-11.37559 L 55.797057,148.16377 V 133.41519 118.6666 h -4.036124 c -2.476147,0 -4.125932,-0.14531 -4.268483,-0.37596 -0.377149,-0.61024 16.985015,-23.083758 17.833605,-23.083758 0.66815,0 17.68198,21.748468 17.92534,22.913618 0.098,0.4691 -0.48654,0.5461 -4.14514,0.5461 h -4.2592 v 14.80213 14.80213 l -2.49616,6.27635 c -6.25501,15.72757 -6.88484,17.06693 -7.53278,16.01854 z m 2.72648,-6.29171 c 1.08484,-2.67388 2.97325,-7.32222 4.19648,-10.32966 l 2.22404,-5.46805 0.17639,-15.16945 0.17639,-15.16944 3.97453,-0.17639 3.97454,-0.17639 -6.26759,-8.12669 c -3.44718,-4.46968 -7.2151,-9.35124 -8.37315,-10.847908 -1.15806,-1.49668 -2.20658,-2.72123 -2.33005,-2.72123 -0.23664,0 -2.34488,2.6665 -11.435686,14.463878 l -5.572779,7.23195 4.019257,0.17639 4.019257,0.17639 0.176389,15.02295 0.176389,15.02296 4.231813,10.60888 c 2.3275,5.83488 4.32846,10.54915 4.44658,10.47615 0.11812,-0.073 1.10236,-2.32046 2.1872,-4.99434 z m -44.026706,1.66479 c -0.447588,-0.86554 -0.768912,-1.05833 -1.763889,-1.05833 -1.002931,0 -1.315637,-0.19151 -1.780477,-1.09041 -0.512938,-0.99192 -0.513756,-1.14579 -0.0091,-1.70348 0.629252,-0.69531 0.726654,-1.64438 0.202036,-1.96861 -0.598236,-0.36973 -0.389955,-2.15006 0.327496,-2.79935 0.416253,-0.3767 0.949493,-0.53019 1.373938,-0.39548 0.761127,0.24158 1.826344,-0.58459 1.826344,-1.41648 0,-0.35162 0.420767,-0.50397 1.391861,-0.50397 1.167952,0 1.468346,0.15607 1.8673,0.97014 0.387309,0.79031 0.681594,0.95402 1.587622,0.88319 0.811723,-0.0635 1.260308,0.12454 1.660479,0.69586 0.692846,0.98918 0.702746,2.17512 0.02287,2.73937 -0.463218,0.38444 -0.453364,0.55806 0.08322,1.46643 0.553052,0.93624 0.559341,1.11787 0.06885,1.98838 -0.353323,0.62707 -0.842135,0.96435 -1.414988,0.97635 -1.159439,0.0243 -1.715129,0.40097 -2.105243,1.42705 -0.255547,0.67214 -0.577902,0.84767 -1.55668,0.84767 -1.014745,0 -1.331779,-0.18832 -1.78168,-1.05833 z m 2.645833,-0.16265 c 0,-0.8726 1.495877,-2.00923 2.359128,-1.79257 1.15898,0.29089 1.58166,-0.71676 0.900149,-2.1459 -0.49805,-1.04442 -0.495084,-1.22583 0.03323,-2.03213 0.78343,-1.19567 0.418329,-1.98064 -0.921219,-1.98064 -1.144821,0 -2.371285,-0.84936 -2.371285,-1.64218 0,-0.27093 -0.378346,-0.47449 -0.881944,-0.47449 -0.542647,0 -0.881945,0.20045 -0.881945,0.52104 0,0.73999 -1.628832,1.71324 -2.490272,1.48797 -1.076564,-0.28153 -1.651834,1.14421 -0.915461,2.26887 0.496308,0.75801 0.495644,0.94604 -0.007,1.98327 -0.455459,0.93984 -0.473845,1.24402 -0.10226,1.69175 0.249172,0.30023 0.667613,0.46354 0.929868,0.3629 0.619061,-0.23755 2.232356,0.49878 2.232356,1.01889 0,0.60407 0.764862,1.24865 1.481666,1.24865 0.34925,0 0.635,-0.23194 0.635,-0.51543 z m -2.591157,-3.30471 c -0.791941,-0.87509 -0.735391,-2.37831 0.121713,-3.23542 0.943792,-0.94379 1.96481,-0.88948 3.014646,0.16036 1.001116,1.00111 1.090664,1.83121 0.316739,2.93615 -0.692328,0.98843 -2.614317,1.06575 -3.453098,0.13891 z m 2.930258,-0.74042 c 0.771177,-1.44096 -0.728716,-2.85343 -2.048448,-1.92905 -1.33065,0.93202 -0.761445,2.60905 0.885546,2.60905 0.439438,0 0.962743,-0.306 1.162902,-0.68 z m 77.834127,4.45188 c -0.63323,-0.46302 -0.59342,-0.68044 1.01916,-5.56644 0.92297,-2.79653 1.85851,-5.27831 2.07899,-5.51507 0.22826,-0.24512 0.75874,-0.33687 1.23206,-0.2131 0.74668,0.19527 0.81159,0.3646 0.63836,1.66519 -0.14071,1.05637 -0.099,1.2809 0.15437,0.83046 0.19097,-0.33955 0.61715,-0.61458 0.94706,-0.61119 0.76869,0.008 4.30399,3.28181 4.30399,3.98575 0,0.29322 -0.9733,1.34639 -2.16288,2.34039 -2.0574,1.71912 -2.19505,1.77816 -2.82223,1.21058 -0.90063,-0.81506 -0.83249,-1.24777 0.37933,-2.40877 l 1.03867,-0.9951 -1.1213,-1.33559 -1.12129,-1.33559 -1.45568,4.11678 c -0.83116,2.35059 -1.66889,4.15898 -1.95266,4.21516 -0.27335,0.0541 -0.79352,-0.11844 -1.15595,-0.38346 z m 2.53991,-4.74202 c 1.96338,-5.67449 2.00695,-5.84671 1.43291,-5.66385 -0.67667,0.21554 -3.93217,9.80899 -3.32865,9.80899 0.27262,0 1.04856,-1.69664 1.89574,-4.14514 z m 5.36464,0.79375 1.55801,-1.5875 -1.55658,-1.58604 c -1.03136,-1.05088 -1.67488,-1.46773 -1.9072,-1.2354 -0.23233,0.23232 0.0538,0.76789 0.84796,1.58726 l 1.1986,1.23664 -1.31229,1.34391 c -1.14292,1.17045 -1.36141,1.82863 -0.60704,1.82863 0.12129,0 0.92163,-0.71437 1.77854,-1.5875 z m -11.72986,0.70921 c -0.921625,-0.86454 -1.675695,-1.87998 -1.675695,-2.25653 0,-0.93197 3.167685,-3.95461 4.020915,-3.83679 0.36824,0.0508 0.84063,0.36542 1.04975,0.69907 0.30736,0.49035 0.16117,0.83263 -0.76274,1.78586 l -1.14298,1.17925 0.88091,0.82757 c 1.10754,1.04048 1.42719,2.01263 0.87898,2.67318 -0.69968,0.84307 -1.48368,0.58449 -3.24914,-1.07161 z m 2.69106,0.59503 c 0.0963,-0.15579 -0.29122,-0.78218 -0.86112,-1.39198 -1.30016,-1.39116 -1.29673,-1.8237 0.0245,-3.08949 0.72436,-0.69398 0.94601,-1.13082 0.69905,-1.37777 -0.24695,-0.24695 -0.88775,0.16455 -2.02105,1.29785 l -1.659455,1.65946 1.563015,1.59259 c 1.58311,1.61308 1.93949,1.82 2.25509,1.30934 z M 30.220667,153.01875 c -4.888273,-2.74735 -4.409722,-1.98827 -4.409722,-6.9948 0,-3.50134 0.110438,-4.48683 0.552335,-4.92873 0.602935,-0.60293 4.52914,-2.95384 6.511047,-3.89864 l 1.242548,-0.59234 3.784535,1.81205 c 2.628908,1.25872 3.784535,1.99624 3.784535,2.41527 0,0.38874 -1.254406,1.3509 -3.527777,2.70588 l -3.527778,2.10264 v 4.50493 c 0,4.44326 -0.01087,4.50462 -0.793751,4.48242 -0.436562,-0.0124 -2.06375,-0.73628 -3.615972,-1.60868 z m 3.681891,-3.21106 c 0.06707,-4.8445 -0.01925,-4.69216 3.958761,-6.98667 1.521461,-0.87758 2.766293,-1.75943 2.766293,-1.95967 0,-0.20023 -1.468041,-1.06169 -3.262314,-1.91434 l -3.262315,-1.55028 -2.470324,1.34626 c -4.712297,2.56807 -4.712682,2.56838 -4.958534,4.02357 -0.12563,0.74359 -0.118498,2.74079 0.01585,4.43821 l 0.244266,3.08622 3.407103,1.81919 c 1.873907,1.00055 3.428893,1.82257 3.455525,1.8267 0.02663,0.004 0.07419,-1.85401 0.105691,-4.12919 z m 61.972927,4.5512 c -0.0989,-0.16008 -0.15926,-2.17654 -0.13405,-4.48101 l 0.0458,-4.18996 -3.49866,-2.13745 c -1.92427,-1.17559 -3.54485,-2.37728 -3.60131,-2.67042 -0.0705,-0.36591 1.10559,-1.12912 3.75183,-2.43479 l 3.85447,-1.90181 3.37069,1.86729 c 5.162985,2.8602 4.922415,2.46533 4.689925,7.69798 -0.10798,2.4303 -0.3222,4.53815 -0.47605,4.68413 -0.15385,0.14598 -1.69157,1.07355 -3.41715,2.06125 -3.027435,1.73288 -4.205615,2.11951 -4.585535,1.50479 z m 5.704565,-3.06818 1.86217,-0.99721 -0.0983,-4.41857 -0.0983,-4.41857 -3.439455,-1.99495 -3.43945,-1.99495 -3.35152,1.60166 c -1.84334,0.88092 -3.3498,1.69127 -3.3477,1.80077 0.002,0.10951 0.97849,0.75473 2.16976,1.43383 1.19126,0.67909 2.77704,1.67228 3.52396,2.20707 l 1.35802,0.97235 v 4.26465 4.26464 l 1.4993,-0.86175 c 0.82462,-0.47397 2.337275,-1.3105 3.361465,-1.85897 z m -90.069976,-0.97818 c -0.23632,-0.94154 -1.43001,-1.82564 -1.7549802,-1.29981 -0.41867,0.67742 -1.81968,0.32899 -2.80266,-0.69702 -0.92896,-0.96962 -0.9621,-1.09921 -0.47358,-1.85208 0.67203,-1.03569 0.4739,-1.57415 -0.82668,-2.24671 -0.96267,-0.49781 -1.03662,-0.671 -0.93827,-2.19744 0.0898,-1.39318 0.22907,-1.67445 0.87489,-1.7664 1.22594,-0.17456 1.57086,-0.8413 1.09179,-2.1105 -0.37463,-0.99251 -0.33085,-1.20024 0.42183,-2.00143 0.90225,-0.9604 1.74572,-1.13513 2.38648,-0.49436 0.6039202,0.60392 1.4940802,0.0909 1.9094002,-1.10052 0.3373,-0.96757 0.51161,-1.06299 1.9419,-1.06299 1.41918,0 1.60611,0.0998 1.93042,1.03005 0.44621,1.28 1.01198,1.51253 2.40279,0.98756 0.986153,-0.37223 1.17426,-0.3218 2.044106,0.54805 0.82936,0.82936 0.910096,1.08856 0.601227,1.9302 -0.467079,1.27276 -0.251782,2.20692 0.50863,2.20692 0.992084,0 1.4558,0.75074 1.4558,2.35689 0,1.31874 -0.112395,1.53843 -0.886451,1.73271 -1.19453,0.29981 -1.569478,1.07551 -1.10924,2.29482 0.326906,0.86607 0.261634,1.12307 -0.487839,1.92085 -0.761731,0.81083 -1.047302,0.8937 -2.387133,0.69278 -1.45674,-0.21845 -1.5394,-0.18185 -1.93074,0.85492 -0.3775,1.00012 -0.5376,1.08314 -2.08866,1.08314 -1.4576,0 -1.70671,-0.10711 -1.88303,-0.80963 z m 3.14167,-0.71739 c 0.28788,-1.14703 1.71947,-1.75473 2.88388,-1.2242 0.764069,0.34814 1.004417,0.30114 1.622912,-0.31736 0.616356,-0.61635 0.6619,-0.84581 0.301529,-1.51917 -0.555698,-1.03833 0.02107,-2.35882 1.231266,-2.81893 1.340251,-0.50957 1.252398,-2.27445 -0.137334,-2.75891 -1.196735,-0.41718 -1.809799,-2.19995 -1.065097,-3.09726 0.363802,-0.43835 0.3168,-0.66029 -0.262522,-1.23962 -0.610605,-0.6106 -0.832421,-0.6479 -1.646664,-0.27691 -1.23926,0.56464 -2.60192,-0.0334 -2.91459,-1.27915 -0.19324,-0.76994 -0.39998,-0.89626 -1.31878,-0.80575 -0.82794,0.0816 -1.13895,0.31838 -1.29503,0.98612 -0.26784,1.14587 -1.8485,1.75066 -2.8845102,1.10366 -0.63132,-0.39427 -0.83036,-0.36335 -1.41329,0.21958 -0.5837,0.5837 -0.61858,0.80994 -0.24973,1.61948 0.55507,1.21825 -0.0284,2.60498 -1.16388,2.76593 -1.14691,0.16258 -1.38402,2.23582 -0.29522,2.58139 0.40428,0.12832 0.99193,0.62533 1.30588,1.10448 0.48836,0.74534 0.50292,0.99804 0.10083,1.74937 -0.41676,0.77871 -0.38745,0.96073 0.25874,1.60692 0.61438,0.61438 0.85122,0.66319 1.50928,0.311 1.0674102,-0.57126 2.6989302,0.1167 2.9856102,1.25894 0.30169,1.20202 2.1469,1.22495 2.44672,0.0304 z m -2.42275,-3.74448 c -0.38805,-0.16268 -1.09882,-0.71897 -1.57948,-1.23619 -3.0789402,-3.31317 2.10892,-8.0102 5.31079,-4.80833 1.43837,1.43837 1.46602,3.72025 0.0611,5.03922 -1.08407,1.01772 -2.72507,1.45273 -3.79236,1.0053 z m 3.35933,-1.69788 c 0.9584,-1.21841 0.8908,-2.74728 -0.16829,-3.80638 -1.78353,-1.78353 -4.77854,-0.57988 -4.77854,1.92043 0,2.8039 3.25011,4.04298 4.94683,1.88595 z m 95.604806,6.2206 c -1.10868,-0.43826 -1.40894,-0.92256 -1.41567,-2.28335 -0.007,-1.40716 0.95001,-2.25953 2.53682,-2.25953 1.51955,0 2.185,0.70993 2.185,2.33106 0,1.87386 -1.54552,2.90782 -3.30615,2.21182 z m 2.03615,-1.08566 c 0.98954,-0.98954 0.24402,-2.75167 -1.16417,-2.75167 -0.94561,0 -1.5875,0.64189 -1.5875,1.5875 0,0.94561 0.64189,1.5875 1.5875,1.5875 0.40746,0 0.93133,-0.1905 1.16417,-0.42333 z m -4.42736,-8.99786 c -0.43657,-0.0841 -0.79275,-0.34028 -0.79153,-0.56932 0.001,-0.22904 0.91925,-3.19456 2.04007,-6.59005 1.89034,-5.72676 2.10302,-6.18128 2.93839,-6.27964 1.93644,-0.22799 1.93072,0.53351 -0.0491,6.53226 -1.7904,5.4249 -2.56403,7.20577 -3.08766,7.10768 -0.14105,-0.0264 -0.61364,-0.11684 -1.0502,-0.20093 z m 3.00241,-6.1912 c 1.93372,-5.60343 2.14752,-6.61261 1.40092,-6.61261 -0.26565,0 -1.25627,2.43594 -2.43888,5.99722 -1.66936,5.0271 -1.89659,5.99691 -1.40472,5.99525 0.4399,-0.001 1.05138,-1.34823 2.44268,-5.37986 z m -32.210805,4.16315 c -0.95791,-0.95791 -1.0677,-1.61933 -0.46032,-2.77326 0.76608,-1.45542 2.17508,-1.73648 3.42084,-0.68236 1.21356,1.02687 1.32424,2.37793 0.28034,3.42183 -1.13134,1.13134 -2.13287,1.14178 -3.24086,0.0338 z m 2.33228,-0.20484 c 1.03754,-0.55527 0.91827,-2.36467 -0.18913,-2.86924 -0.66638,-0.30362 -0.9985,-0.29168 -1.41111,0.0508 -0.73733,0.61192 -0.68894,2.35608 0.0777,2.80264 0.77456,0.45114 0.7104,0.45047 1.5225,0.0158 z m 33.016205,-0.27995 c -0.85839,-0.94851 -0.72456,-1.54951 0.63943,-2.87154 l 1.22328,-1.18565 -1.22328,-1.35402 c -0.6728,-0.74471 -1.22327,-1.56708 -1.22327,-1.82749 0,-0.52725 1.10384,-1.64116 1.62632,-1.64116 0.65835,0 4.3709,4.08315 4.3709,4.80723 0,0.71108 -3.8262,4.71777 -4.50525,4.71777 -0.17836,0 -0.58702,-0.29031 -0.90813,-0.64514 z m 2.94393,-2.35347 1.91618,-1.94028 -1.90532,-1.92929 c -1.46618,-1.48462 -2.01251,-1.84033 -2.37036,-1.54334 -0.37198,0.30872 -0.21773,0.65968 0.77085,1.75392 0.67973,0.75238 1.23588,1.57706 1.23588,1.83262 0,0.25556 -0.55009,1.1073 -1.22242,1.89277 -1.0782,1.25964 -1.26138,1.87388 -0.55882,1.87388 0.11981,0 1.08012,-0.87313 2.13401,-1.94028 z m -13.85757,0.60713 c -1.10958,-1.12128 -2.01743,-2.27719 -2.01743,-2.56868 0,-0.78813 3.96331,-4.56484 4.79037,-4.56484 0.81063,0 1.55963,0.62636 1.55963,1.30426 0,0.25168 -0.5807,1.10037 -1.29045,1.88597 l -1.29045,1.42838 1.35184,1.38441 c 1.22347,1.25294 1.31323,1.46915 0.94524,2.27681 -0.66459,1.45861 -1.78489,1.14142 -4.04875,-1.14631 z m 3.15111,0.7924 c 0.12992,-0.33856 -0.26994,-1.00445 -1.0694,-1.78087 -0.7023,-0.68207 -1.27616,-1.35154 -1.27523,-1.48773 9.3e-4,-0.13618 0.55655,-0.85174 1.23472,-1.59015 0.67817,-0.7384 1.23304,-1.466 1.23304,-1.61689 0,-0.89264 -0.72279,-0.53287 -2.53775,1.26315 l -2.04831,2.02694 1.84001,1.86315 c 1.97352,1.99834 2.30031,2.1631 2.62292,1.3224 z m -66.038965,-2.02026 c -0.09378,-0.24439 -0.02002,-1.23657 0.163902,-2.20486 0.331698,-1.74624 0.323153,-1.77208 -1.053141,-3.18499 -0.763154,-0.78345 -1.387553,-1.61142 -1.387553,-1.83993 0,-0.23318 0.788211,-0.52003 1.796521,-0.65378 1.984803,-0.2633 2.894528,-0.99078 3.568008,-2.85326 0.610858,-1.6893 1.499027,-1.51601 2.245298,0.43808 0.695812,1.82195 1.071816,2.08947 3.414479,2.42933 0.921632,0.1337 1.675695,0.42579 1.675695,0.6491 0,0.2233 -0.623494,1.04701 -1.385541,1.83046 l -1.385541,1.42447 0.35158,1.89827 c 0.468807,2.53119 0.131041,2.79381 -2.123727,1.65124 l -1.806772,-0.91556 -1.752161,0.88788 c -2.021087,1.02417 -2.092973,1.0379 -2.321047,0.44355 z m 3.764597,-1.9167 c 0.315333,-0.0922 1.221821,0.16317 2.014418,0.56752 0.792597,0.40435 1.505469,0.73519 1.58416,0.73519 0.07869,0 0.01255,-0.67469 -0.146971,-1.49931 -0.159525,-0.82462 -0.296959,-1.61791 -0.305409,-1.76287 -0.0085,-0.14496 0.553092,-0.89278 1.247871,-1.66182 l 1.263235,-1.39825 -0.998652,-0.20326 c -2.379841,-0.4844 -2.767749,-0.73742 -3.50007,-2.28304 l -0.739237,-1.56021 -0.971996,1.65858 c -0.663782,1.13266 -1.268622,1.72091 -1.90745,1.85513 -0.5145,0.1081 -1.316146,0.27488 -1.781436,0.37062 -0.838869,0.17262 -0.834954,0.18538 0.465679,1.51735 1.293414,1.32458 1.307121,1.36823 0.985362,3.13852 l -0.326298,1.79525 1.27173,-0.55086 c 0.699452,-0.30298 1.529731,-0.62632 1.845064,-0.71854 z m 41.951823,-1.58569 c -2.86269,-1.48549 -4.05425,-5.40882 -2.25019,-7.40898 0.35599,-0.39468 2.05555,-1.68288 3.77679,-2.86265 1.74733,-1.19766 5.05415,-4.0627 7.48722,-6.48696 4.07342,-4.05867 4.446935,-4.3419 5.725935,-4.3419 2.63675,0 4.99085,2.3509 5.27072,5.26356 0.20592,2.14301 0.0657,2.34341 -3.14814,4.49967 -1.32763,0.89074 -2.41192,1.71748 -2.40951,1.83718 0.002,0.1197 0.55802,0.57629 1.23472,1.01464 1.14902,0.74431 1.6733,1.84884 0.87758,1.84884 -0.19403,0 -0.35278,0.3175 -0.35278,0.70555 0,0.79174 -0.26594,0.85524 -1.54504,0.36892 -0.85039,-0.32331 -0.88968,-0.27795 -0.99311,1.14653 -0.0748,1.02996 -0.26938,1.48601 -0.636845,1.49249 -0.29104,0.005 -0.72761,0.13356 -0.97014,0.2854 -0.69143,0.43288 -1.11541,-0.0351 -1.53251,-1.69155 l -0.3856,-1.53134 -2.37986,2.6988 c -3.03047,3.43661 -3.25199,3.6103 -4.86042,3.81087 -0.95533,0.11913 -1.78532,-0.0661 -2.90882,-0.64907 z m 3.61187,-0.41787 c 0.62436,-0.26622 2.24645,-1.77718 3.60464,-3.35769 1.3582,-1.5805 2.69352,-2.83112 2.96738,-2.77915 0.27387,0.052 0.68483,0.65012 0.91324,1.32922 0.29471,0.87621 0.63669,1.24634 1.17776,1.27475 0.65821,0.0346 0.76246,-0.14851 0.76246,-1.3389 0,-1.37394 0.004,-1.37813 1.185455,-1.15654 1.76312,0.33076 1.99469,-0.65781 0.39656,-1.69294 -0.67128,-0.43479 -1.22248,-0.9613 -1.22488,-1.17002 -0.006,-0.51693 1.16434,-1.53255 3.788,-3.28738 1.9034,-1.27308 2.20486,-1.62238 2.20486,-2.55477 0,-2.42814 -1.95211,-4.74118 -4.31818,-5.11658 -1.07939,-0.17126 -1.42153,0.0842 -5.581495,4.16677 -2.43739,2.39207 -5.96926,5.43708 -7.8486,6.76669 -2.66646,1.88648 -3.48191,2.66135 -3.71257,3.52778 -0.55668,2.09112 0.69327,4.37624 2.94001,5.37481 1.33896,0.5951 1.38191,0.59532 2.74536,0.0139 z m -3.00551,-1.11775 c -1.09652,-0.60493 -2.0329,-2.19003 -2.0329,-3.44129 0,-0.91631 0.98117,-2.01247 1.80136,-2.01247 0.85685,0 2.07919,1.05659 2.07919,1.79724 0,0.54614 -0.20397,0.67671 -0.93313,0.59736 -1.23964,-0.1349 -1.47267,0.66379 -0.34375,1.17816 0.72807,0.33173 1.06256,0.29822 1.7916,-0.17946 1.16358,-0.76241 1.13039,-1.33835 -0.16194,-2.81024 -0.58208,-0.66295 -1.05833,-1.36 -1.05833,-1.54898 0,-0.34848 3.60701,-3.18459 4.4727,-3.51679 0.58481,-0.22441 3.28841,2.4215 3.28841,3.21825 0,0.32033 -1.32124,2.04557 -2.93608,3.83386 -3.17348,3.51433 -4.05384,3.93988 -5.96713,2.88436 z m 4.919,-2.89612 c 3.01247,-3.19552 3.35141,-3.99948 2.20197,-5.223 -0.44561,-0.47433 -0.98523,-0.86242 -1.19917,-0.86242 -0.21393,0 -1.18904,0.60116 -2.1669,1.33592 l -1.77794,1.33591 0.99368,0.97932 c 1.29906,1.28027 1.32416,2.74046 0.0642,3.73158 -1.10773,0.87134 -2.15663,0.93053 -3.22532,0.18199 -0.43123,-0.30204 -0.78405,-0.45846 -0.78405,-0.34759 0,0.32055 2.24052,1.59954 2.8046,1.601 0.28136,7.2e-4 1.67139,-1.229 3.08897,-2.73271 z m -4.55289,-0.94213 c 0.96404,0.0348 0.97319,-0.074 0.0479,-0.56925 -0.95441,-0.51078 -1.74322,0.1154 -1.73614,1.37819 l 0.005,0.92694 0.45354,-0.88195 c 0.28591,-0.55598 0.74033,-0.87159 1.22952,-0.85393 z m 10.38918,-7.2348 c -0.82462,-0.95898 -1.4993,-1.85528 -1.4993,-1.99178 0,-0.1365 0.88655,-1.25798 1.97011,-2.49217 1.610925,-1.83488 2.166095,-2.24398 3.045145,-2.24398 1.51331,0 3.4514,2.07675 3.4514,3.69832 0,1.04653 -0.25471,1.3604 -2.27258,2.80032 -1.24992,0.89192 -2.48023,1.7007 -2.73403,1.79728 -0.256625,0.0977 -1.126895,-0.59828 -1.960745,-1.56799 z m 3.388815,-0.32689 c 0.70702,-0.55401 1.64268,-1.19459 2.07924,-1.42352 0.48121,-0.25234 0.79375,-0.74393 0.79375,-1.24846 0,-0.99136 -1.78976,-3.02351 -2.66289,-3.02351 -0.33875,0 -1.44686,0.91281 -2.462455,2.02847 l -1.84655,2.02848 1.1047,1.29305 c 0.60758,0.71118 1.2406,1.3065 1.406705,1.32292 0.16611,0.0164 0.88048,-0.42342 1.5875,-0.97743 z m -81.357426,12.59132 c -0.606788,-0.60679 -0.618495,-12.31901 -0.01292,-12.92459 0.612534,-0.61253 5.37326,-0.56098 5.891783,0.0638 0.279001,0.33618 0.374379,2.44063 0.307779,6.79098 l -0.09651,6.30384 -2.826943,0.10111 c -1.896368,0.0678 -2.970548,-0.0425 -3.263194,-0.33514 z m 5.346838,-0.85316 c 0.117773,-0.30691 0.214133,-2.98868 0.214133,-5.95948 0,-4.59999 -0.0828,-5.43323 -0.55802,-5.61559 -0.939209,-0.36041 -4.324603,-0.2378 -4.573952,0.16566 -0.274782,0.4446 -0.232311,11.21175 0.046,11.66207 0.103797,0.16795 1.194243,0.30536 2.423214,0.30536 1.71213,0 2.28455,-0.13045 2.448625,-0.55802 z m 1.625244,-2.44059 v -3.70417 h 3.130903 3.130903 l 0.220486,1.10243 c 0.341666,1.70833 0.260398,4.8666 -0.144704,5.62354 -0.316898,0.59213 -0.760074,0.68237 -3.351389,0.68237 h -2.986199 z m 5.618091,2.5012 c 0.252389,-0.30411 0.371997,-1.43515 0.307779,-2.91042 l -0.105037,-2.413 -2.557639,-0.10365 -2.557639,-0.10365 v 3.01406 3.01407 h 2.24986 c 1.50567,0 2.386408,-0.16453 2.662676,-0.49741 z m -5.618091,-10.79148 v -3.52778 h 2.045071 c 1.902399,0 2.136206,0.0933 3.351389,1.33779 1.222618,1.25208 1.306318,1.47811 1.306318,3.52778 v 2.18999 h -3.351389 -3.351389 z m 5.997222,1.16332 c 0,-1.38801 -0.184119,-1.84886 -1.127536,-2.82222 -0.931492,-0.96106 -1.391523,-1.16332 -2.645834,-1.16332 h -1.518297 v 2.82222 2.82222 h 2.645834 2.645833 z m 4.040613,-5.42308 c -0.119735,-0.19373 -0.117664,-0.94435 0.0046,-1.66803 0.194665,-1.15222 0.08861,-1.44388 -0.853123,-2.34611 -1.642741,-1.57385 -1.304184,-2.30943 1.062925,-2.30943 0.837528,0 1.152432,-0.25506 1.742206,-1.41112 0.86036,-1.68644 1.520526,-1.79198 2.122251,-0.33929 0.505096,1.21941 1.302358,1.75041 2.628129,1.75041 1.366797,0 1.467875,0.88983 0.257649,2.2682 -0.957434,1.09046 -1.033547,1.34658 -0.760264,2.55828 0.167027,0.74058 0.171644,1.47855 0.01026,1.63994 -0.161386,0.16138 -0.973112,-0.035 -1.803837,-0.43632 -0.968286,-0.46783 -1.652276,-0.61202 -1.905665,-0.40172 -0.775865,0.64391 -2.279022,1.06105 -2.505131,0.69519 z m 1.98033,-1.27842 c 0.956259,-0.56488 1.088423,-0.56406 2.301234,0.0143 l 1.286709,0.61359 -0.227251,-1.21135 c -0.184194,-0.98184 -0.05846,-1.41194 0.663613,-2.27008 1.080332,-1.2839 1.102384,-1.48605 0.162116,-1.48605 -1.07341,0 -2.017494,-0.60355 -2.558141,-1.63541 l -0.477906,-0.91212 -0.751538,1.27376 c -0.526737,0.89275 -1.001319,1.27376 -1.586585,1.27376 -1.239806,0 -1.365518,0.33584 -0.552894,1.47707 0.505051,0.70928 0.687664,1.40453 0.589582,2.24468 -0.164692,1.41071 -0.17855,1.40327 1.151061,0.61785 z m 45.923974,-2.50272 c 0.14871,-1.10876 0.0472,-1.57297 -0.44066,-2.01445 -1.09688,-0.99266 -1.12017,-1.91404 -0.0542,-2.14642 1.62811,-0.35494 1.74897,-0.43187 2.23032,-1.4197 0.68939,-1.41476 1.26148,-1.41107 1.94034,0.0125 0.4248,0.8908 0.83327,1.26173 1.38943,1.26173 2.00439,0 2.41524,0.80765 1.05899,2.08178 -0.7078,0.66494 -0.8135,1.02708 -0.65175,2.23302 l 0.19306,1.43936 -1.20034,-0.28053 c -1.42573,-0.33321 -2.25616,-0.32942 -3.63492,0.0166 l -1.02347,0.25685 z m 4.49919,-0.99993 c 1.9e-4,-0.60684 0.23847,-1.30096 0.52951,-1.5425 0.7832,-0.65 0.64417,-1.05834 -0.36034,-1.05834 -0.60647,0 -1.01738,-0.28063 -1.29135,-0.88194 -0.22101,-0.48507 -0.50963,-0.88195 -0.64137,-0.88195 -0.13174,0 -0.42035,0.39688 -0.64136,0.88195 -0.27398,0.60131 -0.68489,0.88194 -1.29135,0.88194 -1.01736,0 -1.142,0.40962 -0.32975,1.08372 0.35641,0.2958 0.51331,0.86238 0.4319,1.55966 l -0.12784,1.09511 1.8608,-0.0172 c 1.8455,-0.017 1.8608,-0.0262 1.86115,-1.12049 z"
       id="path1" /></g></svg>
